<?xml version="1.0" encoding="UTF-8"?>
<svg width="20px" height="20px" viewBox="0 0 20 20" version="1.1" xmlns="http://www.w3.org/2000/svg" xmlns:xlink="http://www.w3.org/1999/xlink">
    <g stroke="none" stroke-width="1" fill="none" fill-rule="evenodd">
        <g transform="translate(-551.000000, -260.000000)" fill-rule="nonzero">
            <g transform="translate(551.000000, 260.000000)">
                <path d="M0,9.97942386 C0,15.4340881 4.4771525,19.8559671 10,19.8559671 C15.5228475,19.8559671 20,15.4340881 20,9.97942386 C20,4.52475966 15.5228475,0.102880648 10,0.102880648 C4.4771525,0.102880648 0,4.52475966 0,9.97942386 Z" fill="#FDDC3A"></path>
                <path d="M2,9.97942386 C2,14.3431552 5.581722,17.8806584 10,17.8806584 C14.418278,17.8806584 18,14.3431552 18,9.97942386 C18,5.6156925 14.418278,2.07818929 10,2.07818929 C5.581722,2.07818929 2,5.6156925 2,9.97942386 Z" fill="#E3A815"></path>
                <path d="M3.33333334,9.97942386 C3.33333334,13.6158666 6.31810167,16.563786 10,16.563786 C13.6818983,16.563786 16.6666667,13.6158666 16.6666667,9.97942386 C16.6666667,7.62705781 15.3960072,5.45338194 13.3333333,4.2771989 C11.2706595,3.10101587 8.7293405,3.10101587 6.66666664,4.2771989 C4.60399279,5.45338194 3.33333334,7.62705781 3.33333334,9.97942386 Z" fill="#F5CF41"></path>
                <polygon fill="#FFF2A0" points="10 12.6131687 6.86533334 14.2408231 7.464 10.793251 4.928 8.35176954 8.432 7.84872429 10 4.71193417 11.568 7.84872429 15.072 8.35176954 12.536 10.793251 13.1346667 14.2408231"></polygon>
            </g>
        </g>
    </g>
</svg>