<?xml version="1.0" encoding="UTF-8"?>
<svg width="21px" height="20px" viewBox="0 0 21 20" version="1.1" xmlns="http://www.w3.org/2000/svg" xmlns:xlink="http://www.w3.org/1999/xlink">
    <g stroke="none" stroke-width="1" fill="none" fill-rule="evenodd">
        <g transform="translate(-470.000000, -260.000000)" fill-rule="nonzero">
            <g transform="translate(470.000000, 260.000000)">
                <path d="M18.1443873,20 C19.8210229,19.9276062 20.952381,19.8233591 20.952381,19.6930502 L20.952381,19.034749 C20.952381,15.6389961 18.1629341,12.9140927 15.1806,11.7992278 C17.0547596,10.6177606 18.5208884,8.16023166 18.5208884,5.87934363 C18.5208884,2.61003862 15.8130477,0 12.571985,0 C12.507071,0 12.4440117,0.00096525285 12.3809524,0.00289575855 C14.3840126,1.1969112 15.7388603,3.37644788 15.7388603,5.87934363 C15.7388603,7.90926641 14.7484583,10.0685328 13.2600733,11.5675676 C16.1459638,13.1554054 18.1703529,15.9440154 18.1703528,19.034749 L18.1703528,19.6930502 C18.1703528,19.804054 18.1629341,19.9054054 18.1443873,20 L18.1443873,20 Z" fill="#478EEE"></path>
                <path d="M17.1428571,19.5810876 C17.1428571,20.0820839 0,20.1943762 0,19.5810876 L0,18.9265291 C0,15.5500824 2.93540783,12.840671 5.9688826,11.7321446 C4.0622348,10.5573945 2.61197548,8.11383758 2.61197548,5.84591728 C2.61197548,2.59519952 5.32484676,0 8.62140499,0 C11.9170203,0 14.6704385,2.59519952 14.6704385,5.84591728 C14.6704385,8.11479734 13.1805752,10.5573945 11.2739274,11.7321446 C14.3064592,12.840671 17.1428571,15.5500824 17.1428571,18.9265291 L17.1428571,19.5810876 Z" fill="#32C5FF"></path>
            </g>
        </g>
    </g>
</svg>