<svg class="icon" viewBox="0 0 1490 1024" xmlns="http://www.w3.org/2000/svg" width="200" height="200"><path d="M0 65.164C0 29.174 29.085 0 65.198 0h1359.058c36.008 0 65.199 29.248 65.199 65.164 0 35.989-29.085 65.163-65.199 65.163H65.198C29.19 130.327 0 101.08 0 65.164zM0 512c0-35.989 29.085-65.164 65.198-65.164h1359.058c36.008 0 65.199 29.248 65.199 65.164 0 35.989-29.085 65.164-65.199 65.164H65.198C29.19 577.164 0 547.916 0 512zm0 446.836c0-35.989 29.085-65.163 65.198-65.163h1359.058c36.008 0 65.199 29.248 65.199 65.163 0 35.99-29.085 65.164-65.199 65.164H65.198C29.19 1024 0 994.752 0 958.836z"/></svg>