<?xml version="1.0" encoding="UTF-8"?>
<svg width="23px" height="18px" viewBox="0 0 23 18" version="1.1" xmlns="http://www.w3.org/2000/svg" xmlns:xlink="http://www.w3.org/1999/xlink">
    <g stroke="none" stroke-width="1" fill="none" fill-rule="evenodd">
        <g transform="translate(-631.000000, -261.000000)" fill-rule="nonzero">
            <g transform="translate(631.000000, 261.000000)">
                <path d="M20.2301544,3.66115702 C20.2301544,2.67975207 19.4164829,1.875 18.4242007,1.875 L4.03610805,1.875 C3.0438258,1.875 2.25,2.67975207 2.25,3.66115702 L2.25,7.21384298 C3.24228225,7.21384298 4.03610805,8.01859504 4.03610805,9 C4.03610805,9.98140496 3.2224366,10.786157 2.25,10.786157 L2.25,14.338843 C2.25,15.3202479 3.06367144,16.125 4.05595369,16.125 L18.4440463,16.125 C19.4363286,16.125 20.25,15.3202479 20.25,14.338843 L20.25,10.786157 C19.2577178,10.786157 18.4440463,9.98140496 18.4440463,9 C18.4242007,8.01859504 19.2378721,7.23347107 20.2301544,7.23347107 L20.2301544,3.66115702 Z" fill="#FFCB99"></path>
                <path d="M22.023375,6.757125 L22.023375,2.413125 C22.023375,1.213125 21.039375,0.229125 19.839375,0.229125 L2.439375,0.229125 C1.239375,0.229125 0.279375,1.213125 0.279375,2.413125 L0.279375,6.757125 C1.479375,6.757125 2.439375,7.741125 2.439375,8.941125 C2.439375,10.141125 1.455375,11.125125 0.279375,11.125125 L0.279375,15.469125 C0.279375,16.669125 1.263375,17.653125 2.463375,17.653125 L19.863375,17.653125 C21.063375,17.653125 22.047375,16.669125 22.047375,15.469125 L22.047375,11.125125 C20.847375,11.125125 19.863375,10.141125 19.863375,8.941125 C19.863375,7.741125 20.823375,6.757125 22.023375,6.757125 Z M12.231375,14.917125 L10.047375,14.917125 L10.047375,12.733125 L12.231375,12.733125 L12.231375,14.917125 Z M12.231375,10.021125 L10.047375,10.021125 L10.047375,7.837125 L12.231375,7.837125 L12.231375,10.021125 Z M12.231375,5.125125 L10.047375,5.125125 L10.047375,2.941125 L12.231375,2.941125 L12.231375,5.125125 Z" fill="#FF7E00"></path>
            </g>
        </g>
    </g>
</svg>